# xmcd
#
# Track frame offsets:
#	150
#	13506
#	25302
#	37954
#	48218
#	63584
#	70150
#	87368
#	97926
#	111582
#	122898
#	132834
#	144185
#	155917
#	168295
#	185950
#
# Disc length: 2612 seconds
#
# Revision: 0
# Processed by: cddbd v1.4PL0 Copyright (c) Steve Scherf et al.
# Submitted via: audiograbber 1.82.02
#
DISCID=de0a3210
DTITLE=Jim Reeves and Don Williams - Side By Side
DYEAR=2003
DGENRE=Country
TTITLE0=Ruby Tuesday
TTITLE1=Mexican Joe
TTITLE2=Amanda
TTITLE3=Anna Marie
TTITLE4=Tears
TTITLE5=Have I Told You Lately
TTITLE6=I Believe You
TTITLE7=Peace In The Valley
TTITLE8=You're My Best Friend
TTITLE9=Just Call Me Lonesome
TTITLE10=Take My Hand For A While
TTITLE11=If Heartaches Are The Fashion
TTITLE12=Tulsa Time
TTITLE13=Your Old Love Letters
TTITLE14=Good Old Boys Like Me
TTITLE15=He'll Have To Go
EXTD=
EXTT0=
EXTT1=
EXTT2=
EXTT3=
EXTT4=
EXTT5=
EXTT6=
EXTT7=
EXTT8=
EXTT9=
EXTT10=
EXTT11=
EXTT12=
EXTT13=
EXTT14=
EXTT15=
PLAYORDER=
